@startuml
hide empty members

' qualified name: "TestLanguage"


class DataTypeTestConcept {
  booleanValue_1: Boolean
  integerValue_1: Integer
  stringValue_1: String
  enumValue_1: TestEnumeration
  booleanValue_0_1: Boolean?
  integerValue_0_1: Integer?
  stringValue_0_1: String?
  enumValue_0_1: TestEnumeration?
}

class LinkTestConcept implements INamed

annotation RestrictedTestAnnotation implements INamed
RestrictedTestAnnotation ..# LinkTestConcept : <i>annotates</i>

enum SecondTestEnumeration {
  literal1
  literal2
  literal3
}

annotation TestAnnotation implements INamed
TestAnnotation ..# Node : <i>annotates</i>

enum TestEnumeration {
  literal1
  literal2
  literal3
}

class TestPartition <<partition>> implements INamed



' relations:


LinkTestConcept "1" o--> "0..1" LinkTestConcept: containment_0_1
LinkTestConcept "1" o--> "1" LinkTestConcept: containment_1
LinkTestConcept "1" o--> "*" LinkTestConcept: containment_0_n
LinkTestConcept "1" o--> "*" LinkTestConcept: containment_1_n
LinkTestConcept "*" --> "0..1" LinkTestConcept: reference_0_1
LinkTestConcept "*" --> "1" LinkTestConcept: reference_1
LinkTestConcept "*" --> "*" LinkTestConcept: reference_0_n
LinkTestConcept "*" --> "*" LinkTestConcept: reference_1_n
LinkTestConcept "1" o--> "0..1" LinkTestConcept: otherContainment_0_1


TestAnnotation "*" --> "1" Node: ref
TestAnnotation "1" o--> "0..1" Node: containedNode

TestPartition "1" o--> "*" LinkTestConcept: links
TestPartition "1" o--> "0..1" DataTypeTestConcept: data

@enduml
